<svg width="23" height="19" viewBox="0 0 23 19" fill="none" xmlns="http://www.w3.org/2000/svg">
<path d="M15.9231 13.8182C17.0786 13.8182 18.0616 14.5392 18.4259 15.5455H22.1154C22.6039 15.5455 23 15.9321 23 16.4091C23 16.8861 22.6039 17.2727 22.1154 17.2727H18.4259C18.0616 18.279 17.0786 19 15.9231 19C14.7676 19 13.7846 18.279 13.4202 17.2727H0.884615C0.396056 17.2727 0 16.8861 0 16.4091C0 15.9321 0.396056 15.5455 0.884615 15.5455H13.4202C13.7846 14.5392 14.7676 13.8182 15.9231 13.8182ZM15.9231 15.5455C15.4345 15.5455 15.0385 15.9321 15.0385 16.4091C15.0385 16.8861 15.4345 17.2727 15.9231 17.2727C16.4116 17.2727 16.8077 16.8861 16.8077 16.4091C16.8077 15.9321 16.4116 15.5455 15.9231 15.5455ZM7.07692 6.90909C8.23242 6.90909 9.21545 7.63006 9.57976 8.63636H22.1154C22.6039 8.63636 23 9.02303 23 9.5C23 9.97697 22.6039 10.3636 22.1154 10.3636H9.57976C9.21545 11.3699 8.23242 12.0909 7.07692 12.0909C5.92142 12.0909 4.9384 11.3699 4.57408 10.3636H0.884615C0.396056 10.3636 0 9.97697 0 9.5C0 9.02303 0.396056 8.63636 0.884615 8.63636H4.57408C4.9384 7.63006 5.92142 6.90909 7.07692 6.90909ZM7.07692 8.63636C6.58836 8.63636 6.19231 9.02303 6.19231 9.5C6.19231 9.97697 6.58836 10.3636 7.07692 10.3636C7.56548 10.3636 7.96154 9.97697 7.96154 9.5C7.96154 9.02303 7.56548 8.63636 7.07692 8.63636ZM15.9231 0C17.0786 0 18.0616 0.72097 18.4259 1.72727H22.1154C22.6039 1.72727 23 2.11394 23 2.59091C23 3.06788 22.6039 3.45455 22.1154 3.45455H18.4259C18.0616 4.46085 17.0786 5.18182 15.9231 5.18182C14.7676 5.18182 13.7846 4.46085 13.4202 3.45455H0.884615C0.396056 3.45455 0 3.06788 0 2.59091C0 2.11394 0.396056 1.72727 0.884615 1.72727H13.4202C13.7846 0.72097 14.7676 0 15.9231 0ZM15.9231 1.72727C15.4345 1.72727 15.0385 2.11394 15.0385 2.59091C15.0385 3.06788 15.4345 3.45455 15.9231 3.45455C16.4116 3.45455 16.8077 3.06788 16.8077 2.59091C16.8077 2.11394 16.4116 1.72727 15.9231 1.72727Z" fill="currentColor"/>
</svg>
