<svg width="41" height="41" viewBox="0 0 41 41" fill="none" xmlns="http://www.w3.org/2000/svg">
<path d="M13.6129 20.4177C13.6129 16.659 16.659 13.6112 20.4177 13.6112C24.1763 13.6112 27.2241 16.659 27.2241 20.4177C27.2241 24.1763 24.1763 27.2241 20.4177 27.2241C16.659 27.2241 13.6129 24.1763 13.6129 20.4177ZM9.93345 20.4177C9.93345 26.2081 14.6272 30.9019 20.4177 30.9019C26.2081 30.9019 30.9019 26.2081 30.9019 20.4177C30.9019 14.6272 26.2081 9.93345 20.4177 9.93345C14.6272 9.93345 9.93345 14.6272 9.93345 20.4177ZM28.8669 9.51775C28.8667 10.0023 29.0102 10.4761 29.2792 10.8791C29.5483 11.2822 29.9308 11.5963 30.3784 11.782C30.8261 11.9676 31.3187 12.0163 31.794 11.922C32.2693 11.8276 32.706 11.5944 33.0488 11.2519C33.3916 10.9094 33.6251 10.4729 33.7198 9.99768C33.8146 9.52244 33.7662 9.02979 33.581 8.58201C33.3957 8.13423 33.0818 7.75145 32.679 7.48207C32.2762 7.21268 31.8025 7.0688 31.318 7.0686H31.317C30.6674 7.06891 30.0445 7.32701 29.5852 7.78622C29.1258 8.24543 28.8674 8.8682 28.8669 9.51775ZM12.1689 37.0372C10.1783 36.9465 9.09632 36.615 8.3773 36.3348C7.42403 35.9637 6.74388 35.5217 6.02877 34.8076C5.31366 34.0935 4.87101 33.414 4.50153 32.4607C4.22123 31.742 3.88965 30.6597 3.79916 28.669C3.70018 26.5169 3.68041 25.8704 3.68041 20.4179C3.68041 14.9653 3.70181 14.3206 3.79916 12.1667C3.88981 10.176 4.22385 9.09583 4.50153 8.37501C4.87264 7.42175 5.31464 6.74159 6.02877 6.02648C6.7429 5.31138 7.4224 4.86872 8.3773 4.49924C9.096 4.21895 10.1783 3.88736 12.1689 3.79687C14.3211 3.69789 14.9676 3.67812 20.4177 3.67812C25.8677 3.67812 26.5149 3.69952 28.6689 3.79687C30.6595 3.88753 31.7397 4.22156 32.4605 4.49924C33.4138 4.86872 34.0939 5.31236 34.8091 6.02648C35.5242 6.74061 35.9652 7.42175 36.3363 8.37501C36.6166 9.09371 36.9482 10.176 37.0387 12.1667C37.1376 14.3206 37.1574 14.9653 37.1574 20.4179C37.1574 25.8704 37.1376 26.5151 37.0387 28.669C36.948 30.6597 36.6148 31.7417 36.3363 32.4607C35.9652 33.414 35.5232 34.0941 34.8091 34.8076C34.0949 35.5211 33.4138 35.9637 32.4605 36.3348C31.7418 36.6151 30.6595 36.9467 28.6689 37.0372C26.5167 37.1362 25.8702 37.1559 20.4177 37.1559C14.9652 37.1559 14.3205 37.1362 12.1689 37.0372ZM11.9999 0.12365C9.8263 0.222634 8.34103 0.567285 7.04394 1.07201C5.70062 1.59323 4.56343 2.2925 3.42707 3.42707C2.2907 4.56164 1.59323 5.70062 1.07201 7.04394C0.567285 8.34185 0.222634 9.8263 0.12365 11.9999C0.0230312 14.1769 0 14.8729 0 20.4177C0 25.9625 0.0230312 26.6585 0.12365 28.8355C0.222634 31.0092 0.567285 32.4935 1.07201 33.7914C1.59323 35.1339 2.29086 36.2742 3.42707 37.4083C4.56327 38.5424 5.70062 39.2407 7.04394 39.7634C8.34348 40.2681 9.8263 40.6127 11.9999 40.7117C14.178 40.8107 14.8729 40.8354 20.4177 40.8354C25.9625 40.8354 26.6585 40.8123 28.8355 40.7117C31.0092 40.6127 32.4935 40.2681 33.7914 39.7634C35.1339 39.2407 36.2719 38.5429 37.4083 37.4083C38.5447 36.2737 39.2407 35.1339 39.7634 33.7914C40.2681 32.4935 40.6144 31.0091 40.7117 28.8355C40.8107 26.6568 40.8337 25.9625 40.8337 20.4177C40.8337 14.8729 40.8107 14.1769 40.7117 11.9999C40.6127 9.82613 40.2681 8.34103 39.7634 7.04394C39.2407 5.70144 38.5429 4.56343 37.4083 3.42707C36.2737 2.2907 35.1339 1.59323 33.7931 1.07201C32.4935 0.567285 31.0091 0.221001 28.8371 0.12365C26.6601 0.0246646 25.9641 0 20.4193 0C14.8745 0 14.178 0.0230312 11.9999 0.12365Z" fill="url(#paint0_radial_6066_497)"/>
<path d="M13.6129 20.4177C13.6129 16.659 16.659 13.6112 20.4177 13.6112C24.1763 13.6112 27.2241 16.659 27.2241 20.4177C27.2241 24.1763 24.1763 27.2241 20.4177 27.2241C16.659 27.2241 13.6129 24.1763 13.6129 20.4177ZM9.93345 20.4177C9.93345 26.2081 14.6272 30.9019 20.4177 30.9019C26.2081 30.9019 30.9019 26.2081 30.9019 20.4177C30.9019 14.6272 26.2081 9.93345 20.4177 9.93345C14.6272 9.93345 9.93345 14.6272 9.93345 20.4177ZM28.8669 9.51775C28.8667 10.0023 29.0102 10.4761 29.2792 10.8791C29.5483 11.2822 29.9308 11.5963 30.3784 11.782C30.8261 11.9676 31.3187 12.0163 31.794 11.922C32.2693 11.8276 32.706 11.5944 33.0488 11.2519C33.3916 10.9094 33.6251 10.4729 33.7198 9.99768C33.8146 9.52244 33.7662 9.02979 33.581 8.58201C33.3957 8.13423 33.0818 7.75145 32.679 7.48207C32.2762 7.21268 31.8025 7.0688 31.318 7.0686H31.317C30.6674 7.06891 30.0445 7.32701 29.5852 7.78622C29.1258 8.24543 28.8674 8.8682 28.8669 9.51775ZM12.1689 37.0372C10.1783 36.9465 9.09632 36.615 8.3773 36.3348C7.42403 35.9637 6.74388 35.5217 6.02877 34.8076C5.31366 34.0935 4.87101 33.414 4.50153 32.4607C4.22123 31.742 3.88965 30.6597 3.79916 28.669C3.70018 26.5169 3.68041 25.8704 3.68041 20.4179C3.68041 14.9653 3.70181 14.3206 3.79916 12.1667C3.88981 10.176 4.22385 9.09583 4.50153 8.37501C4.87264 7.42175 5.31464 6.74159 6.02877 6.02648C6.7429 5.31138 7.4224 4.86872 8.3773 4.49924C9.096 4.21895 10.1783 3.88736 12.1689 3.79687C14.3211 3.69789 14.9676 3.67812 20.4177 3.67812C25.8677 3.67812 26.5149 3.69952 28.6689 3.79687C30.6595 3.88753 31.7397 4.22156 32.4605 4.49924C33.4138 4.86872 34.0939 5.31236 34.8091 6.02648C35.5242 6.74061 35.9652 7.42175 36.3363 8.37501C36.6166 9.09371 36.9482 10.176 37.0387 12.1667C37.1376 14.3206 37.1574 14.9653 37.1574 20.4179C37.1574 25.8704 37.1376 26.5151 37.0387 28.669C36.948 30.6597 36.6148 31.7417 36.3363 32.4607C35.9652 33.414 35.5232 34.0941 34.8091 34.8076C34.0949 35.5211 33.4138 35.9637 32.4605 36.3348C31.7418 36.6151 30.6595 36.9467 28.6689 37.0372C26.5167 37.1362 25.8702 37.1559 20.4177 37.1559C14.9652 37.1559 14.3205 37.1362 12.1689 37.0372ZM11.9999 0.12365C9.8263 0.222634 8.34103 0.567285 7.04394 1.07201C5.70062 1.59323 4.56343 2.2925 3.42707 3.42707C2.2907 4.56164 1.59323 5.70062 1.07201 7.04394C0.567285 8.34185 0.222634 9.8263 0.12365 11.9999C0.0230312 14.1769 0 14.8729 0 20.4177C0 25.9625 0.0230312 26.6585 0.12365 28.8355C0.222634 31.0092 0.567285 32.4935 1.07201 33.7914C1.59323 35.1339 2.29086 36.2742 3.42707 37.4083C4.56327 38.5424 5.70062 39.2407 7.04394 39.7634C8.34348 40.2681 9.8263 40.6127 11.9999 40.7117C14.178 40.8107 14.8729 40.8354 20.4177 40.8354C25.9625 40.8354 26.6585 40.8123 28.8355 40.7117C31.0092 40.6127 32.4935 40.2681 33.7914 39.7634C35.1339 39.2407 36.2719 38.5429 37.4083 37.4083C38.5447 36.2737 39.2407 35.1339 39.7634 33.7914C40.2681 32.4935 40.6144 31.0091 40.7117 28.8355C40.8107 26.6568 40.8337 25.9625 40.8337 20.4177C40.8337 14.8729 40.8107 14.1769 40.7117 11.9999C40.6127 9.82613 40.2681 8.34103 39.7634 7.04394C39.2407 5.70144 38.5429 4.56343 37.4083 3.42707C36.2737 2.2907 35.1339 1.59323 33.7931 1.07201C32.4935 0.567285 31.0091 0.221001 28.8371 0.12365C26.6601 0.0246646 25.9641 0 20.4193 0C14.8745 0 14.178 0.0230312 11.9999 0.12365Z" fill="url(#paint1_radial_6066_497)"/>
<defs>
<radialGradient id="paint0_radial_6066_497" cx="0" cy="0" r="1" gradientUnits="userSpaceOnUse" gradientTransform="translate(5.42522 41.0283) scale(53.3072 53.3072)">
<stop offset="0.09" stop-color="#FA8F21"/>
<stop offset="0.78" stop-color="#D82D7E"/>
</radialGradient>
<radialGradient id="paint1_radial_6066_497" cx="0" cy="0" r="1" gradientUnits="userSpaceOnUse" gradientTransform="translate(24.7649 42.8577) scale(42.0134 42.0134)">
<stop offset="0.64" stop-color="#8C3AAA" stop-opacity="0"/>
<stop offset="1" stop-color="#8C3AAA"/>
</radialGradient>
</defs>
</svg>
