<svg width="255" height="45" viewBox="0 0 255 45" fill="none" xmlns="http://www.w3.org/2000/svg">
<path d="M148.401 2.96349V5.10916C148.401 5.69723 149.037 6.30119 149.037 6.30119L148.401 6.71443C148.401 6.71443 148.306 8.12898 147.813 8.54222C147.305 8.95546 144.571 7.3025 144.571 7.3025L142.743 8.20845C142.743 8.20845 144.666 9.81373 145.62 10.9581C146.573 12.1024 150.817 17.2044 150.817 17.2044L154.059 9.67068C154.059 9.67068 152.963 8.43097 152.788 6.57139C152.613 4.69592 153.328 5.52239 153.424 6.15815L153.646 6.42834C153.646 6.42834 153.328 4.96611 153.694 3.91712C154.059 2.86813 154.282 3.6946 154.282 3.6946C154.282 3.6946 154.6 3.10653 154.87 3.86944C155.379 3.91712 155.379 4.50519 155.379 4.50519C155.379 4.50519 155.696 4.33036 155.84 5.45882C155.983 6.60318 155.983 8.28792 154.886 10.068C154.377 14.3594 151.914 20.5739 151.914 20.5739L143.061 12.6746C143.061 12.6746 142.52 15.6468 141.821 16.1395C141.138 16.6481 139.898 16.1872 139.898 16.1872C139.898 16.1872 138.293 18.3328 136.703 19.652C139.167 20.1924 148.02 24.1341 147.893 25.8188C147.75 27.5036 136.942 28.4254 132.555 29.2837C132.65 31.1115 133.286 32.0174 133.874 32.4307C134.462 32.8439 136.528 34.2584 134.24 33.8929C131.951 33.5273 130.854 31.7472 129.853 30.5075C128.852 29.2678 128.661 28.044 131.776 28.0916C135.162 26.9473 139.962 25.5804 139.962 25.5804L132.698 24.7539C132.698 24.7539 126.07 31.6519 124.211 33.0187C122.335 34.3856 114.023 39.7259 114.023 39.7259C114.023 39.7259 113.292 43.1113 113.705 43.3815C114.118 43.6517 117.217 43.7947 115.994 44.2557C114.754 44.7166 111.559 44.4782 111.559 44.4782C111.559 44.4782 111.512 40.9656 111.241 40.457C110.971 39.9484 110.59 38.518 113.324 38.7405C113.324 38.7405 116.947 32.828 119.538 31.8744C120.508 31.5088 121.445 31.4134 122.208 31.4134C122.208 31.4134 125.514 24.5314 127.564 22.0679C127.469 19.048 128.391 18.3646 132.762 16.9024C134.764 13.9779 136.417 10.0045 136.91 8.41507C134.081 6.5396 129.837 4.85485 129.837 4.85485C129.837 4.85485 123.813 6.90516 123.13 7.54091C123.766 8.78063 122.812 9.27334 122.669 9.95677C122.526 10.6402 121.843 11.3713 121.938 9.86141C121.35 11.419 120.38 13.0561 120.38 12.1501C119.919 12.7859 119.872 11.7846 119.872 11.7846C119.872 11.7846 119.554 12.1024 119.649 11.1965C119.236 11.2442 119.697 9.05083 120.062 8.41507C120.428 7.77932 121.429 6.85748 122.574 6.44424C124.036 5.29988 130.155 2.32773 130.155 2.32773C130.155 2.32773 137.959 4.982 139.199 5.61776C140.438 6.25351 140.836 6.76211 140.836 6.76211L142.759 5.98332C142.759 5.98332 141.932 4.10784 141.805 3.01117C141.392 3.186 140.899 2.78866 140.899 2.78866C140.899 2.78866 139.755 2.4231 138.293 2.78866C136.83 3.15421 133.223 3.2019 132.031 2.05754C133.08 2.23237 134.86 2.10522 136.147 1.32642C137.419 0.547626 139.167 0.420475 140.947 1.69198C141.265 1.42179 141.853 1.59662 141.853 1.59662C141.853 1.59662 142.075 -0.549048 144.905 0.134386C147.734 0.817821 148.687 2.4231 148.369 2.91581L148.401 2.96349Z" fill="white"/>
<path d="M0 13.0882H3.78273V23.435H10.1562V26.4231H0V13.0723V13.0882Z" fill="white"/>
<path d="M20.7261 23.8324H15.0838L14.0348 26.4231H10.1885L16.0851 13.0723H19.8042L25.7168 26.4231H21.791L20.742 23.8324H20.7261ZM19.6294 21.051L17.9129 16.7755L16.1963 21.051H19.6294Z" fill="white"/>
<path d="M35.1728 16.0759H31.0721V13.0879H43.0243V16.0759H38.9396V26.4228H35.1569V16.0759H35.1728Z" fill="white"/>
<path d="M55.1519 23.5145V26.4231H44.4395V13.0723H54.8976V15.9808H48.1745V18.2378H54.1029V21.051H48.1745V23.4986H55.1519V23.5145Z" fill="white"/>
<path d="M63.0819 22.8788H61.0316V26.4231H57.2488V13.0723H63.3521C66.9918 13.0723 69.2805 14.9636 69.2805 18.0152C69.2805 19.9861 68.3268 21.4324 66.6739 22.2271L69.5507 26.4231H65.5136L63.0978 22.8788H63.0819ZM63.1296 16.0603H61.0316V19.9702H63.1296C64.6872 19.9702 65.4818 19.2391 65.4818 18.0311C65.4818 16.8232 64.703 16.0603 63.1296 16.0603Z" fill="white"/>
<path d="M77.1973 22.8788H75.147V26.4231H71.3643V13.0723H77.4675C81.1072 13.0723 83.3959 14.9636 83.3959 18.0152C83.3959 19.9861 82.4423 21.4324 80.7893 22.2271L83.6661 26.4231H79.629L77.2132 22.8788H77.1973ZM77.245 16.0603H75.147V19.9702H77.245C78.8026 19.9702 79.5973 19.2391 79.5973 18.0311C79.5973 16.8232 78.8185 16.0603 77.245 16.0603Z" fill="white"/>
<path d="M96.1899 23.5145V26.4231H85.4774V13.0723H95.9356V15.9808H89.2125V18.2378H95.1409V21.051H89.2125V23.4986H96.1899V23.5145Z" fill="white"/>
<path d="M101.132 16.0759H97.0312V13.0879H108.983V16.0759H104.899V26.4228H101.116V16.0759H101.132Z" fill="white"/>
<path d="M118.679 23.8324H113.037L111.988 26.4231H108.142L114.038 13.0723H117.757L123.67 26.4231H119.744L118.695 23.8324H118.679ZM117.583 21.051L115.866 16.7755L114.15 21.051H117.583Z" fill="white"/>
<path d="M165.375 26.4231L161.989 21.7185C161.513 21.8139 160.972 21.8457 160.432 21.8457H156.299V26.4231H155.918V13.0723H160.432C163.706 13.0723 165.677 14.6934 165.677 17.459C165.677 19.6046 164.469 21.0828 162.403 21.6073L165.868 26.4072H165.391L165.375 26.4231ZM160.464 21.496C163.595 21.496 165.295 20.0338 165.295 17.4749C165.295 14.916 163.595 13.4537 160.464 13.4537H156.284V21.496H160.464Z" fill="white"/>
<path d="M169.443 20.8441V13.0879H169.824V20.8282C169.824 24.3884 171.557 26.1208 174.593 26.1208C177.628 26.1208 179.361 24.3884 179.361 20.8282V13.0879H179.742V20.8441C179.742 24.6268 177.771 26.4864 174.593 26.4864C171.414 26.4864 169.443 24.6268 169.443 20.8441Z" fill="white"/>
<path d="M195.176 13.0879V26.4387H194.858L185.083 13.8031V26.4387H184.702V13.0879H185.02L194.795 25.7235V13.0879H195.176Z" fill="white"/>
<path d="M203.615 19.7631C203.615 15.9168 206.555 13.04 210.465 13.04C212.214 13.04 213.851 13.5963 214.995 14.7407L214.773 15.0109C213.549 13.8506 212.087 13.4056 210.465 13.4056C206.794 13.4056 203.997 16.1711 203.997 19.779C203.997 23.3869 206.778 26.1524 210.465 26.1524C212.087 26.1524 213.549 25.6915 214.773 24.5313L214.995 24.8015C213.851 25.9458 212.214 26.518 210.465 26.518C206.555 26.518 203.615 23.6412 203.615 19.7949V19.7631Z" fill="white"/>
<path d="M218.587 13.0879H218.968V26.0731H226.915V26.4387H218.587V13.0879Z" fill="white"/>
<path d="M229.251 20.8441V13.0879H229.632V20.8282C229.632 24.3884 231.365 26.1208 234.4 26.1208C237.436 26.1208 239.169 24.3884 239.169 20.8282V13.0879H239.55V20.8441C239.55 24.6268 237.579 26.4864 234.4 26.4864C231.222 26.4864 229.251 24.6268 229.251 20.8441Z" fill="white"/>
<path d="M255 22.9423C255 25.1993 253.411 26.4231 250.184 26.4231H244.526V13.0723H249.803C252.553 13.0723 254.285 14.2166 254.285 16.4418C254.285 18.1583 253.252 19.1914 251.647 19.5728C253.872 19.8748 255 21.0033 255 22.9264V22.9423ZM244.892 13.4537V19.4775H249.867C252.394 19.4775 253.888 18.4444 253.888 16.4577C253.888 14.4709 252.394 13.4378 249.867 13.4378H244.892V13.4537ZM254.619 22.9423C254.619 20.7967 253.093 19.8271 250.248 19.8271H244.892V26.0575H250.248C253.093 26.0575 254.619 25.088 254.619 22.9264V22.9423Z" fill="white"/>
</svg>
