<svg width="302" height="85" viewBox="0 0 302 85" fill="none" xmlns="http://www.w3.org/2000/svg">
<path d="M286.736 5.61244V9.67604C286.736 10.7898 287.974 11.9336 287.974 11.9336L286.736 12.7162C286.736 12.7162 286.55 15.3952 285.591 16.1778C284.6 16.9604 279.276 13.8299 279.276 13.8299L275.716 15.5457C275.716 15.5457 279.461 18.5859 281.319 20.7531C283.176 22.9204 291.441 32.5827 291.441 32.5827L297.756 18.315C297.756 18.315 295.62 15.9671 295.279 12.4453C294.939 8.89342 296.332 10.4587 296.518 11.6627L296.951 12.1744C296.951 12.1744 296.332 9.40514 297.044 7.41849C297.756 5.43184 298.189 6.99708 298.189 6.99708C298.189 6.99708 298.808 5.88335 299.335 7.32818C300.325 7.41849 300.325 8.53221 300.325 8.53221C300.325 8.53221 300.944 8.20111 301.223 10.3383C301.501 12.5055 301.501 15.6962 299.366 19.0675C298.375 27.1947 293.577 38.9641 293.577 38.9641L276.335 24.004C276.335 24.004 275.283 29.6328 273.921 30.566C272.589 31.5292 270.175 30.6563 270.175 30.6563C270.175 30.6563 267.048 34.7199 263.953 37.2182C268.751 38.2416 285.993 45.7066 285.745 48.8973C285.467 52.088 264.417 53.8338 255.874 55.4593C256.059 58.9209 257.298 60.6366 258.443 61.4192C259.588 62.2018 263.613 64.8808 259.155 64.1885C254.697 63.4962 252.562 60.1249 250.611 57.777C248.661 55.4292 248.29 53.1114 254.357 53.2017C260.95 51.0345 270.299 48.4458 270.299 48.4458L256.152 46.8806C256.152 46.8806 243.244 59.9443 239.622 62.533C235.97 65.1216 219.78 75.2355 219.78 75.2355C219.78 75.2355 218.356 81.6469 219.161 82.1586C219.966 82.6704 226.002 82.9413 223.619 83.8142C221.204 84.6871 214.982 84.2356 214.982 84.2356C214.982 84.2356 214.889 77.5833 214.363 76.6201C213.837 75.6569 213.094 72.9478 218.418 73.3692C218.418 73.3692 225.476 62.1717 230.522 60.3657C232.41 59.6734 234.236 59.4928 235.722 59.4928C235.722 59.4928 242.161 46.4592 246.154 41.7935C245.968 36.0744 247.764 34.7801 256.276 32.0108C260.176 26.4723 263.396 18.9471 264.355 15.937C258.845 12.3851 250.58 9.19443 250.58 9.19443C250.58 9.19443 238.849 13.0774 237.517 14.2815C238.756 16.6293 236.898 17.5624 236.62 18.8568C236.341 20.1511 235.01 21.5357 235.196 18.6762C234.05 21.626 232.162 24.7264 232.162 23.0107C231.265 24.2147 231.172 22.3184 231.172 22.3184C231.172 22.3184 230.553 22.9204 230.738 21.2046C229.933 21.2949 230.831 17.141 231.543 15.937C232.255 14.733 234.205 12.9871 236.434 12.2045C239.282 10.0373 251.2 4.40841 251.2 4.40841C251.2 4.40841 266.398 9.43524 268.813 10.6393C271.227 11.8433 272.001 12.8065 272.001 12.8065L275.747 11.3316C275.747 11.3316 274.137 7.7797 273.89 5.70274C273.085 6.03385 272.125 5.28133 272.125 5.28133C272.125 5.28133 269.896 4.58902 267.048 5.28133C264.201 5.97365 257.174 6.06395 254.852 3.8967C256.895 4.22781 260.362 3.987 262.87 2.51207C265.346 1.03713 268.751 0.796323 272.218 3.20438C272.837 2.69267 273.982 3.02378 273.982 3.02378C273.982 3.02378 274.416 -1.03982 279.926 0.254509C285.436 1.54884 287.293 4.58902 286.674 5.52214L286.736 5.61244Z" fill="white"/>
<path d="M0 20.9639H7.36729V40.5595H19.7802V46.2185H0V20.9639Z" fill="white"/>
<path d="M40.3658 41.3422H29.3768L27.3338 46.2486H19.8427L31.327 20.964H38.5704L50.0857 46.2486H42.4398L40.3968 41.3422H40.3658ZM38.2299 36.0746L34.8868 27.9775L31.5436 36.0746H38.2299Z" fill="white"/>
<path d="M68.5027 26.6531H60.5164V20.9942H83.7945V26.6531H75.8391V46.2487H68.4718V26.6531H68.5027Z" fill="white"/>
<path d="M107.414 40.7101V46.2185H86.55V20.964H106.918V26.4724H93.8245V30.7467H105.371V36.0746H93.8245V40.7101H107.414Z" fill="white"/>
<path d="M122.859 39.5361H118.865V46.2486H111.498V20.964H123.385C130.473 20.964 134.931 24.546 134.931 30.3253C134.931 34.0578 133.074 36.797 129.854 38.302L135.457 46.2486H127.595L122.889 39.5361H122.859ZM122.951 26.5928H118.865V33.9976H122.951C125.985 33.9976 127.533 32.613 127.533 30.3253C127.533 28.0377 126.016 26.5928 122.951 26.5928Z" fill="white"/>
<path d="M150.35 39.5361H146.356V46.2486H138.989V20.964H150.876C157.965 20.964 162.422 24.546 162.422 30.3253C162.422 34.0578 160.565 36.797 157.345 38.302L162.948 46.2486H155.086L150.381 39.5361H150.35ZM150.442 26.5928H146.356V33.9976H150.442C153.476 33.9976 155.024 32.613 155.024 30.3253C155.024 28.0377 153.507 26.5928 150.442 26.5928Z" fill="white"/>
<path d="M187.34 40.7101V46.2185H166.477V20.964H186.845V26.4724H173.751V30.7467H185.297V36.0746H173.751V40.7101H187.34Z" fill="white"/>
<path d="M196.966 26.6531H188.98V20.9942H212.258V26.6531H204.302V46.2487H196.935V26.6531H196.966Z" fill="white"/>
<path d="M231.141 41.3422H220.152L218.109 46.2486H210.618L222.102 20.964H229.346L240.861 46.2486H233.215L231.172 41.3422H231.141ZM229.005 36.0746L225.662 27.9775L222.319 36.0746H229.005Z" fill="white"/>
<path d="M18.4801 84.3867L11.8867 75.4769C10.9581 75.6575 9.9056 75.7177 8.85313 75.7177H0.773875V84.3867H0V59.1021H8.79122C15.1679 59.1021 19.0064 62.1724 19.0064 67.4099C19.0064 71.4735 16.6538 74.2729 12.6296 75.2662L19.3778 84.3566H18.4492L18.4801 84.3867ZM8.88408 75.0555C14.9822 75.0555 18.2634 72.2862 18.2634 67.44C18.2634 62.5938 14.9513 59.8245 8.88408 59.8245H0.773875V75.0555H8.91504H8.88408Z" fill="white"/>
<path d="M26.4054 73.8214V59.1323H27.1483V73.7913C27.1483 80.5339 30.5224 83.8149 36.4348 83.8149C42.3472 83.8149 45.7213 80.5339 45.7213 73.7913V59.1323H46.4642V73.8214C46.4642 80.9854 42.6258 84.5072 36.4348 84.5072C30.2438 84.5072 26.4054 80.9553 26.4054 73.8214Z" fill="white"/>
<path d="M76.5204 59.1323V84.4169H75.9013L56.864 60.4868V84.4169H56.1211V59.1323H56.7402L75.7775 83.0624V59.1323H76.5204Z" fill="white"/>
<path d="M92.959 71.7745C92.959 64.4901 98.6857 59.0419 106.301 59.0419C109.706 59.0419 112.894 60.0954 115.123 62.2626L114.689 62.7744C112.306 60.577 109.458 59.7342 106.301 59.7342C99.15 59.7342 93.7019 64.9717 93.7019 71.8046C93.7019 78.6375 99.119 83.875 106.301 83.875C109.458 83.875 112.306 83.0021 114.689 80.8047L115.123 81.3164C112.894 83.4837 109.706 84.5673 106.301 84.5673C98.6857 84.5673 92.959 79.1191 92.959 71.8347V71.7745Z" fill="white"/>
<path d="M122.118 59.1323H122.861V83.7246H138.338V84.4169H122.118V59.1323Z" fill="white"/>
<path d="M142.889 73.8214V59.1323H143.632V73.7913C143.632 80.5339 147.006 83.8149 152.918 83.8149C158.83 83.8149 162.205 80.5339 162.205 73.7913V59.1323H162.948V73.8214C162.948 80.9854 159.109 84.5072 152.918 84.5072C146.727 84.5072 142.889 80.9553 142.889 73.8214Z" fill="white"/>
<path d="M193.004 77.7947C193.004 82.069 189.908 84.3867 183.624 84.3867H172.604V59.1021H182.881C188.237 59.1021 191.611 61.2694 191.611 65.4835C191.611 68.7343 189.599 70.6909 186.472 71.4133C190.806 71.9852 193.004 74.1224 193.004 77.7646V77.7947ZM173.347 59.8245V71.2327H183.036C187.989 71.2327 190.868 69.2762 190.868 65.5136C190.868 61.751 187.958 59.7944 183.036 59.7944H173.347V59.8245ZM192.261 77.7947C192.261 73.7311 189.289 71.8949 183.748 71.8949H173.316V83.6944H183.748C189.289 83.6944 192.261 81.8583 192.261 77.7646V77.7947Z" fill="white"/>
</svg>
