<svg width="41" height="42" viewBox="0 0 41 42" fill="none" xmlns="http://www.w3.org/2000/svg">
<path d="M10.7812 35.6774L11.4502 36.0118C14.1778 37.6342 17.2961 38.4822 20.4697 38.4646C30.2397 38.4423 38.2671 30.396 38.2671 20.6261C38.2671 15.9044 36.3918 11.3701 33.0571 8.02758C29.7268 4.65053 25.1769 2.74738 20.4352 2.74738C10.7099 2.74738 2.70813 10.7502 2.70813 20.4744C2.70813 20.5514 2.70813 20.6272 2.70925 20.7041C2.73854 24.0103 3.66324 27.2467 5.38505 30.0693L5.83099 30.7383L4.04715 37.3163L10.7812 35.6774Z" fill="#00E676"/>
<path d="M35.0416 6.0208C31.2453 2.14758 26.0375 -0.0253432 20.6147 0.000223081H20.5801C9.41209 0.000258008 0.221889 9.1905 0.221889 20.3585C0.221889 20.4109 0.223006 20.4622 0.223006 20.5146C0.265072 24.0654 1.18427 27.5507 2.8988 30.6603L0 41.2519L10.8035 38.4647C13.788 40.1032 17.1432 40.9478 20.5478 40.9175C31.7571 40.8562 40.9462 31.6136 40.9395 20.4031C40.9662 15.017 38.8423 9.83713 35.0416 6.0208ZM20.6147 37.4612C17.5968 37.477 14.632 36.6674 12.041 35.1199L11.3721 34.7855L4.93904 36.4578L6.6114 30.1028L6.16545 29.4339C4.50892 26.7591 3.63129 23.6753 3.63125 20.5291C3.63125 11.2509 11.2662 3.6159 20.5445 3.6159C29.8227 3.6159 37.4576 11.2509 37.4576 20.5291C37.4576 26.3712 34.4307 31.8142 29.4671 34.8969C26.8419 36.5786 23.788 37.4688 20.6704 37.4612M30.4705 25.0857L29.2441 24.5283C29.2441 24.5283 27.4602 23.7478 26.3453 23.1904C26.2338 23.1904 26.1223 23.0789 26.0108 23.0789C25.736 23.0857 25.4674 23.1624 25.2304 23.3019C24.9929 23.4413 25.1189 23.4134 23.558 25.1972C23.4521 25.4057 23.2347 25.5362 23.0006 25.5317H22.8891C22.7215 25.5037 22.5661 25.426 22.4431 25.3087L21.8857 25.0857C20.6896 24.5794 19.5943 23.8618 18.6524 22.9674C18.4294 22.7444 18.095 22.5214 17.872 22.2985C17.0466 21.5078 16.3339 20.6075 15.7537 19.6227L15.6422 19.3997C15.5453 19.2634 15.4701 19.113 15.4192 18.9537C15.39 18.7606 15.4295 18.5634 15.5307 18.3963C15.6321 18.2291 15.9767 17.8388 16.3111 17.5044C16.6456 17.1699 16.6456 16.9469 16.8686 16.7239C16.9832 16.5648 17.0624 16.3829 17.1008 16.1906C17.1393 15.9983 17.1361 15.8 17.0915 15.609C16.572 14.1664 15.9765 12.7522 15.3077 11.3724C15.1284 11.0936 14.8491 10.8941 14.5273 10.8149H13.3009C13.0779 10.8149 12.8549 10.9264 12.6319 10.9264L12.5204 11.0379C12.2975 11.1494 12.0745 11.3724 11.8515 11.4838C11.6285 11.5953 11.517 11.9298 11.294 12.1528C10.5146 13.1377 10.0834 14.3531 10.0676 15.609C10.08 16.4925 10.2695 17.3644 10.6251 18.1733L10.7366 18.5078C11.7377 20.6481 13.1377 22.5779 14.8618 24.1938L15.3077 24.6398C15.6322 24.9086 15.9308 25.2072 16.1996 25.5317C18.5097 27.5419 21.2535 28.9913 24.2158 29.7684C24.5503 29.8799 24.9963 29.8799 25.3307 29.9914H26.4457C27.0284 29.9626 27.5984 29.8106 28.118 29.5454C28.3911 29.4216 28.652 29.2723 28.8984 29.0994L29.1214 28.8764C29.3444 28.6535 29.5674 28.542 29.7904 28.319C30.0083 28.1248 30.1962 27.8994 30.3478 27.6501C30.5619 27.1506 30.7124 26.6266 30.7938 26.0892V25.3087C30.6936 25.2187 30.581 25.1436 30.4593 25.0857" fill="white"/>
</svg>
