<svg width="29" height="29" viewBox="0 0 29 29" fill="none" xmlns="http://www.w3.org/2000/svg">
<path d="M7.04766 4.69833C6.42461 4.69833 5.82708 4.94583 5.38652 5.3864C4.94595 5.82696 4.69845 6.42449 4.69845 7.04753V21.1428C4.69845 21.7658 4.94595 22.3633 5.38652 22.8039C5.82708 23.2445 6.42461 23.492 7.04766 23.492H21.1429C21.7659 23.492 22.3634 23.2445 22.804 22.8039C23.2446 22.3633 23.4921 21.7658 23.4921 21.1428V7.04753C23.4921 6.42449 23.2446 5.82696 22.804 5.3864C22.3634 4.94583 21.7659 4.69833 21.1429 4.69833H7.04766ZM7.04766 2.34912H21.1429C22.389 2.34912 23.5841 2.84413 24.4651 3.72525C25.3463 4.60638 25.8413 5.80143 25.8413 7.04753V21.1428C25.8413 22.3889 25.3463 23.584 24.4651 24.465C23.5841 25.3462 22.389 25.8412 21.1429 25.8412H7.04766C5.80155 25.8412 4.6065 25.3462 3.72537 24.465C2.84426 23.584 2.34924 22.3889 2.34924 21.1428V7.04753C2.34924 5.80143 2.84426 4.60638 3.72537 3.72525C4.6065 2.84413 5.80155 2.34912 7.04766 2.34912Z" fill="#3975EA"/>
<path d="M12.9206 18.1924V24.0654H15.2698V18.1924H17.619L18.2063 15.8432H15.2698V13.8992C15.2698 12.8209 15.3215 12.5578 15.4625 12.2924C15.544 12.134 15.6728 12.0051 15.8313 11.9235C16.0967 11.7814 16.5419 11.7309 17.619 11.7309H18.2075V9.49918C17.5932 9.41109 17.0928 9.38055 16.7064 9.40521C15.7314 9.46747 15.1735 9.61194 14.7248 9.85274C14.1563 10.1531 13.6913 10.6176 13.3905 11.1859C13.0851 11.7603 12.9206 12.33 12.9206 13.9004V15.8432H10.5714V18.1924H12.9206Z" fill="#3975EA"/>
</svg>
