<svg width="29" height="29" viewBox="0 0 29 29" fill="none" xmlns="http://www.w3.org/2000/svg">
<path d="M14.0953 10.5713C13.1608 10.5713 12.2644 10.9426 11.6036 11.6034C10.9427 12.2643 10.5715 13.1606 10.5715 14.0952C10.5715 15.0297 10.9427 15.926 11.6036 16.5868C12.2644 17.2477 13.1608 17.619 14.0953 17.619C15.0298 17.619 15.9261 17.2477 16.587 16.5868C17.2478 15.926 17.6191 15.0297 17.6191 14.0952C17.6191 13.1606 17.2478 12.2643 16.587 11.6034C15.9261 10.9426 15.0298 10.5713 14.0953 10.5713ZM14.0953 8.22214C15.6529 8.22214 17.1468 8.84089 18.2481 9.94231C19.3495 11.0437 19.9683 12.5375 19.9683 14.0952C19.9683 15.6528 19.3495 17.1467 18.2481 18.248C17.1468 19.3494 15.6529 19.9682 14.0953 19.9682C12.5376 19.9682 11.0438 19.3494 9.94243 18.248C8.84102 17.1467 8.22226 15.6528 8.22226 14.0952C8.22226 12.5375 8.84102 11.0437 9.94243 9.94231C11.0438 8.84089 12.5376 8.22214 14.0953 8.22214ZM21.7302 7.92849C21.7302 8.31789 21.5755 8.69134 21.3002 8.96669C21.0248 9.24205 20.6513 9.39674 20.2619 9.39674C19.8726 9.39674 19.499 9.24205 19.2237 8.96669C18.9484 8.69134 18.7937 8.31789 18.7937 7.92849C18.7937 7.53908 18.9484 7.16563 19.2237 6.89028C19.499 6.61493 19.8726 6.46023 20.2619 6.46023C20.6513 6.46023 21.0248 6.61493 21.3002 6.89028C21.5755 7.16563 21.7302 7.53908 21.7302 7.92849ZM14.0953 4.69833C11.1893 4.69833 10.7148 4.70655 9.3628 4.76645C8.44191 4.80992 7.82407 4.93325 7.25086 5.15642C6.77118 5.33254 6.3375 5.61482 5.98229 5.98217C5.61465 6.33737 5.33197 6.77101 5.15537 7.25074C4.9322 7.8263 4.80886 8.44296 4.76658 9.36268C4.7055 10.6594 4.69845 11.1128 4.69845 14.0952C4.69845 17.0011 4.70667 17.4757 4.76658 18.8276C4.81004 19.7473 4.93337 20.3664 5.15537 20.9384C5.35505 21.4493 5.58997 21.817 5.97994 22.207C6.37578 22.6016 6.74343 22.8377 7.24851 23.0327C7.82877 23.2571 8.44661 23.3816 9.3628 23.4239C10.6596 23.4849 11.113 23.492 14.0953 23.492C17.0012 23.492 17.4758 23.4838 18.8278 23.4239C19.7463 23.3804 20.3653 23.2571 20.9385 23.0351C21.4175 22.858 21.8508 22.5764 22.2071 22.2105C22.6029 21.8146 22.839 21.447 23.034 20.9419C23.2572 20.3628 23.3817 19.7438 23.424 18.8276C23.4851 17.5309 23.4921 17.0775 23.4921 14.0952C23.4921 11.1892 23.4839 10.7146 23.424 9.36268C23.3805 8.44414 23.2572 7.82395 23.034 7.25074C22.857 6.7715 22.5749 6.33803 22.2083 5.98217C21.8532 5.61434 21.4195 5.33164 20.9397 5.15525C20.3641 4.93207 19.7463 4.80874 18.8278 4.76645C17.531 4.70538 17.0776 4.69833 14.0953 4.69833ZM14.0953 2.34912C17.2867 2.34912 17.6849 2.36087 18.937 2.4196C20.1879 2.47833 21.0395 2.67449 21.7889 2.96579C22.5642 3.26414 23.2172 3.6682 23.8703 4.32011C24.4676 4.90729 24.9298 5.61756 25.2246 6.4015C25.5148 7.14972 25.7121 8.00249 25.7708 9.25344C25.826 10.5056 25.8413 10.9038 25.8413 14.0952C25.8413 17.2866 25.8296 17.6847 25.7708 18.9369C25.7121 20.1878 25.5148 21.0394 25.2246 21.7888C24.9306 22.5732 24.4683 23.2836 23.8703 23.8702C23.283 24.4673 22.5727 24.9295 21.7889 25.2245C21.0407 25.5146 20.1879 25.712 18.937 25.7707C17.6849 25.8259 17.2867 25.8412 14.0953 25.8412C10.9039 25.8412 10.5057 25.8294 9.25356 25.7707C8.00261 25.712 7.15102 25.5146 6.40162 25.2245C5.61738 24.9303 4.90698 24.468 4.32023 23.8702C3.72284 23.2831 3.26065 22.5729 2.96591 21.7888C2.67461 21.0406 2.47845 20.1878 2.41972 18.9369C2.36451 17.6847 2.34924 17.2866 2.34924 14.0952C2.34924 10.9038 2.36099 10.5056 2.41972 9.25344C2.47845 8.00131 2.67461 7.1509 2.96591 6.4015C3.25984 5.61708 3.72212 4.90661 4.32023 4.32011C4.90714 3.7225 5.61749 3.2603 6.40162 2.96579C7.15102 2.67449 8.00143 2.47833 9.25356 2.4196C10.5057 2.36439 10.9039 2.34912 14.0953 2.34912Z" fill="#D82F8F"/>
</svg>
