<svg width="29" height="29" viewBox="0 0 29 29" fill="none" xmlns="http://www.w3.org/2000/svg">
<path d="M19.9682 15.423V19.7655H17.451V15.7132C17.451 14.696 17.0869 14.0018 16.1754 14.0018C15.48 14.0018 15.0654 14.4693 14.8833 14.9227C14.8176 15.0848 14.7999 15.3103 14.7999 15.5358V19.7655H12.2816C12.2816 19.7655 12.3157 12.9035 12.2816 12.1929H14.7999V13.2653L14.7835 13.29H14.7999V13.2665C15.1347 12.7496 15.7314 12.0143 17.0693 12.0143C18.7255 12.0143 19.9682 13.0973 19.9682 15.423ZM9.64696 8.54102C8.78598 8.54102 8.22217 9.10717 8.22217 9.84952C8.22217 10.5778 8.76953 11.1592 9.61407 11.1592H9.63052C10.5091 11.1592 11.0553 10.5766 11.0553 9.84952C11.0389 9.10717 10.5091 8.54102 9.64696 8.54102ZM8.37134 19.7655H10.8897V12.1929H8.37134V19.7655Z" fill="#2D64BC"/>
<path d="M7.04766 4.69833C6.42461 4.69833 5.82708 4.94583 5.38652 5.3864C4.94595 5.82696 4.69845 6.42449 4.69845 7.04753V21.1428C4.69845 21.7658 4.94595 22.3633 5.38652 22.8039C5.82708 23.2445 6.42461 23.492 7.04766 23.492H21.1429C21.7659 23.492 22.3634 23.2445 22.804 22.8039C23.2446 22.3633 23.4921 21.7658 23.4921 21.1428V7.04753C23.4921 6.42449 23.2446 5.82696 22.804 5.3864C22.3634 4.94583 21.7659 4.69833 21.1429 4.69833H7.04766ZM7.04766 2.34912H21.1429C22.389 2.34912 23.5841 2.84413 24.4651 3.72525C25.3463 4.60638 25.8413 5.80143 25.8413 7.04753V21.1428C25.8413 22.3889 25.3463 23.584 24.4651 24.465C23.5841 25.3462 22.389 25.8412 21.1429 25.8412H7.04766C5.80155 25.8412 4.6065 25.3462 3.72537 24.465C2.84426 23.584 2.34924 22.3889 2.34924 21.1428V7.04753C2.34924 5.80143 2.84426 4.60638 3.72537 3.72525C4.6065 2.84413 5.80155 2.34912 7.04766 2.34912Z" fill="#2D64BC"/>
</svg>
