<svg width="29" height="29" viewBox="0 0 29 29" fill="none" xmlns="http://www.w3.org/2000/svg">
<path d="M7.04766 4.69833C6.42461 4.69833 5.82708 4.94583 5.38652 5.3864C4.94595 5.82696 4.69845 6.42449 4.69845 7.04753V21.1428C4.69845 21.7658 4.94595 22.3633 5.38652 22.8039C5.82708 23.2445 6.42461 23.492 7.04766 23.492H21.1429C21.7659 23.492 22.3634 23.2445 22.804 22.8039C23.2446 22.3633 23.4921 21.7658 23.4921 21.1428V7.04753C23.4921 6.42449 23.2446 5.82696 22.804 5.3864C22.3634 4.94583 21.7659 4.69833 21.1429 4.69833H7.04766ZM7.04766 2.34912H21.1429C22.389 2.34912 23.5841 2.84413 24.4651 3.72525C25.3463 4.60638 25.8413 5.80143 25.8413 7.04753V21.1428C25.8413 22.3889 25.3463 23.584 24.4651 24.465C23.5841 25.3462 22.389 25.8412 21.1429 25.8412H7.04766C5.80155 25.8412 4.6065 25.3462 3.72537 24.465C2.84426 23.584 2.34924 22.3889 2.34924 21.1428V7.04753C2.34924 5.80143 2.84426 4.60638 3.72537 3.72525C4.6065 2.84413 5.80155 2.34912 7.04766 2.34912Z" fill="#00B2FF"/>
<path d="M18.8168 10.6766C19.3705 10.3368 19.7371 9.87291 19.9166 9.28296C19.4109 9.55643 18.8684 9.75514 18.3057 9.87291C17.824 9.35491 17.2142 9.0918 16.4831 9.0918C15.7685 9.0918 15.1648 9.34257 14.6722 9.83043C14.4342 10.0621 14.2462 10.3399 14.1193 10.6468C13.9926 10.9537 13.9299 11.2833 13.9349 11.6153C13.9349 11.8271 13.9616 12.0162 14.015 12.1765C11.9074 12.1046 10.163 11.2303 8.78849 9.54745C8.55553 9.95924 8.43905 10.3786 8.43905 10.8123C8.43905 11.7037 8.81521 12.4101 9.56618 12.9288C9.13794 12.8925 8.76041 12.7842 8.43905 12.6068C8.43905 13.2434 8.6261 13.775 9.00091 14.243C9.36498 14.6991 9.87807 15.0122 10.4501 15.1276C10.2363 15.1824 10.0109 15.2085 9.77927 15.2085C9.56549 15.2085 9.41407 15.1907 9.32431 15.1515C9.48191 15.6702 9.77927 16.091 10.2089 16.4131C10.6336 16.7355 11.1502 16.9138 11.6834 16.9221C10.7707 17.6382 9.7272 17.9923 8.54663 17.9923C8.25748 17.9923 8.0526 17.9882 7.92859 17.9664C9.09135 18.7214 10.3857 19.0962 11.8177 19.0962C13.2833 19.0962 14.5784 18.7248 15.7054 17.9821C16.8326 17.2435 17.6644 16.3321 18.1988 15.2591C18.7273 14.2209 19.0025 13.0723 19.0018 11.9073V11.5866C19.4944 11.2234 19.9209 10.7781 20.2626 10.2703C19.8012 10.4703 19.3148 10.607 18.8168 10.6766Z" fill="#00B2FF"/>
</svg>
